<svg width="16" height="16" viewBox="0 0 16 16" fill="none" xmlns="http://www.w3.org/2000/svg">
<g clip-path="url(#clip0_21_6)">
<rect width="16" height="16" rx="4" fill="#1E232F"/>
<path d="M4.66352 13.1367C5.38357 13.1367 5.99652 12.9954 6.50238 12.7129C7.0128 12.4303 7.39105 12.1113 7.63715 11.7559L6.76215 10.9082C6.53428 11.1999 6.2449 11.4255 5.89398 11.585C5.54307 11.7399 5.16482 11.8174 4.75922 11.8174C4.46299 11.8174 4.18956 11.7673 3.93891 11.667C3.69281 11.5667 3.47862 11.4255 3.29633 11.2432C3.11404 11.07 2.97048 10.874 2.86566 10.6553C2.76085 10.4365 2.68337 10.1654 2.63324 9.8418V9.80762H7.7602V9.10352C7.7602 8.57487 7.68956 8.08724 7.54828 7.64062C7.40701 7.19401 7.19737 6.80892 6.91937 6.48535C6.64138 6.16634 6.2973 5.91797 5.88715 5.74023C5.47699 5.55794 5.00531 5.4668 4.47211 5.4668C3.99359 5.4668 3.54242 5.55794 3.11859 5.74023C2.69932 5.91797 2.33018 6.17318 2.01117 6.50586C1.69216 6.83854 1.44151 7.23958 1.25922 7.70898C1.07693 8.17839 0.985781 8.70247 0.985781 9.28125V9.56152C0.985781 10.0674 1.07237 10.5391 1.24555 10.9766C1.42328 11.4095 1.67393 11.7855 1.9975 12.1045C2.32107 12.4281 2.70844 12.681 3.15961 12.8633C3.61534 13.0456 4.11664 13.1367 4.66352 13.1367ZM4.46527 6.79297C4.73871 6.79297 4.97797 6.84082 5.18305 6.93652C5.39268 7.02767 5.56586 7.15072 5.70258 7.30566C5.84385 7.46517 5.95323 7.65202 6.0307 7.86621C6.10818 8.07585 6.14691 8.28776 6.14691 8.50195V8.61133H2.66742C2.71755 8.32878 2.79503 8.07585 2.89984 7.85254C3.00466 7.62923 3.13454 7.43783 3.28949 7.27832C3.44444 7.12337 3.6199 7.00488 3.81586 6.92285C4.01638 6.83626 4.23285 6.79297 4.46527 6.79297ZM11.0425 9.78027L13.4009 13H15.4244L12.1295 8.68652L15.0074 5.60352H13.0386L10.8306 7.92773L10.1539 8.67969V2.5H8.51324V13H10.1539V10.6211L11.0425 9.78027Z" fill="#EFF1F5"/>
</g>
<defs>
<clipPath id="clip0_21_6">
<rect width="16" height="16" rx="4" fill="white"/>
</clipPath>
</defs>
</svg>